<?xml version="1.0" standalone="no"?>
<!DOCTYPE svg PUBLIC "-//W3C//DTD SVG 20010904//EN"
 "http://www.w3.org/TR/2001/REC-SVG-20010904/DTD/svg10.dtd">
<svg version="1.0" xmlns="http://www.w3.org/2000/svg"
 width="296.000000pt" height="298.000000pt" viewBox="0 0 296.000000 298.000000"
 preserveAspectRatio="xMidYMid meet">

<g transform="translate(0.000000,298.000000) scale(0.100000,-0.100000)"
fill="#000000" stroke="none">
<path d="M0 1515 l0 -1465 1455 0 1455 0 0 1465 0 1465 -1455 0 -1455 0 0
-1465z m2349 1051 c95 -32 156 -78 217 -164 193 -268 240 -758 111 -1162 -30
-94 -66 -180 -123 -294 -24 -49 -44 -100 -44 -113 0 -25 55 -97 178 -236 33
-37 67 -83 76 -102 15 -31 15 -37 1 -65 -37 -72 -118 -39 -310 125 -48 41 -90
75 -92 75 -3 0 -36 -29 -73 -64 -104 -97 -240 -166 -330 -166 -82 0 -198 46
-277 108 -127 101 -230 306 -278 553 -26 134 -31 411 -10 544 57 366 176 638
348 802 85 80 145 113 208 113 24 0 58 7 74 16 111 61 207 69 324 30z m-2015
-1 c18 -9 41 -30 51 -48 19 -30 20 -58 25 -484 3 -248 8 -455 12 -458 4 -4 49
4 100 19 51 15 145 36 208 47 63 12 120 25 126 30 8 6 13 97 17 277 5 260 10
304 47 442 16 58 76 120 117 120 46 0 80 -34 100 -98 15 -48 18 -91 16 -267
-1 -115 -7 -270 -13 -342 -9 -105 -9 -140 1 -168 11 -29 10 -40 -4 -69 -12
-27 -19 -93 -29 -273 -12 -216 -17 -741 -9 -821 8 -66 -69 -97 -124 -49 -56
49 -93 249 -94 517 -1 242 -14 510 -23 510 -18 0 -332 -108 -392 -135 l-59
-26 7 -197 c7 -207 19 -376 37 -528 9 -74 9 -95 -2 -113 -30 -47 -106 -34
-132 22 -30 63 -60 215 -107 532 -34 237 -40 263 -60 298 -18 31 -21 46 -15
80 4 23 7 60 7 82 -13 614 -13 715 -3 840 12 158 32 214 90 252 40 27 61 28
105 8z"/>
<path d="M2110 2267 c-36 -51 -70 -64 -115 -47 -41 15 -58 6 -98 -54 -269
-405 -313 -1044 -94 -1369 85 -128 173 -130 300 -9 20 20 37 43 37 52 0 8 -40
56 -89 107 -104 106 -131 159 -111 217 23 71 102 96 178 57 20 -11 64 -47 97
-81 88 -90 89 -90 121 -28 58 115 101 283 125 491 10 86 10 131 0 225 -19 183
-30 230 -77 329 -56 117 -90 145 -179 151 l-62 4 -33 -45z"/>
</g>
</svg>
